<svg xmlns="http://www.w3.org/2000/svg" xmlns:xlink="http://www.w3.org/1999/xlink" width="940" zoomAndPan="magnify" viewBox="0 0 705 591.000005" height="788" preserveAspectRatio="xMidYMid meet" version="1.0"><defs><clipPath id="be6b0ebe77"><path d="M 113.476562 38.515625 L 315 38.515625 L 315 238 L 113.476562 238 Z M 113.476562 38.515625 " clip-rule="nonzero"/></clipPath><clipPath id="863aba36dc"><path d="M 416 38.515625 L 618.121094 38.515625 L 618.121094 238 L 416 238 Z M 416 38.515625 " clip-rule="nonzero"/></clipPath><clipPath id="befed2ae6d"><path d="M 416 268 L 618.121094 268 L 618.121094 467 L 416 467 Z M 416 268 " clip-rule="nonzero"/></clipPath><clipPath id="104077d383"><path d="M 416 493 L 618 493 L 618 545.410156 L 416 545.410156 Z M 416 493 " clip-rule="nonzero"/></clipPath><clipPath id="79d0062ed7"><path d="M 121 493 L 324 493 L 324 545.410156 L 121 545.410156 Z M 121 493 " clip-rule="nonzero"/></clipPath></defs><path fill="#a4d9f4" d="M 118.390625 181.707031 L 235.4375 137.828125 L 118.390625 93.921875 L 118.390625 45.757812 L 309.867188 120.144531 L 309.867188 155.484375 L 118.390625 229.898438 Z M 118.390625 181.707031 " fill-opacity="1" fill-rule="nonzero"/><g clip-path="url(#be6b0ebe77)"><path fill="#000000" d="M 123.335938 52.929688 L 304.949219 123.507812 L 304.949219 152.121094 L 123.335938 222.699219 L 123.335938 185.125 L 247.953125 138.378906 L 247.953125 137.25 L 123.335938 90.503906 L 123.335938 52.929688 M 113.476562 38.558594 L 113.476562 97.335938 L 119.863281 99.726562 L 221.425781 137.828125 L 119.863281 175.902344 L 113.476562 178.292969 L 113.476562 237.070312 L 126.882812 231.871094 L 308.527344 161.292969 L 314.808594 158.847656 L 314.808594 116.78125 L 308.527344 114.335938 L 126.882812 43.761719 Z M 113.476562 38.558594 " fill-opacity="1" fill-rule="nonzero"/></g><path fill="#a4d9f4" d="M 421.730469 155.484375 L 421.730469 120.144531 L 613.207031 45.757812 L 613.207031 93.921875 L 496.160156 137.828125 L 613.207031 181.707031 L 613.207031 229.898438 Z M 421.730469 155.484375 " fill-opacity="1" fill-rule="nonzero"/><g clip-path="url(#863aba36dc)"><path fill="#000000" d="M 608.289062 52.929688 L 608.289062 90.503906 L 483.644531 137.25 L 483.644531 138.378906 L 608.289062 185.125 L 608.289062 222.699219 L 426.648438 152.121094 L 426.648438 123.507812 L 608.289062 52.929688 M 618.121094 38.558594 L 604.714844 43.761719 L 423.074219 114.335938 L 416.816406 116.78125 L 416.816406 158.847656 L 423.074219 161.292969 L 604.714844 231.871094 L 618.121094 237.070312 L 618.121094 178.292969 L 611.734375 175.902344 L 510.171875 137.828125 L 611.734375 99.726562 L 618.121094 97.335938 Z M 618.121094 38.558594 " fill-opacity="1" fill-rule="nonzero"/></g><path fill="#fff6b3" d="M 126.882812 385.214844 L 126.882812 349.902344 L 318.359375 275.488281 L 318.359375 323.675781 L 201.3125 367.558594 L 318.359375 411.4375 L 318.359375 459.628906 Z M 126.882812 385.214844 " fill-opacity="1" fill-rule="nonzero"/><path fill="#000000" d="M 313.414062 282.6875 L 313.414062 320.261719 L 188.796875 367.007812 L 188.796875 368.136719 L 313.414062 414.855469 L 313.414062 452.429688 L 131.800781 381.851562 L 131.800781 353.265625 L 313.414062 282.6875 M 323.273438 268.289062 L 309.867188 273.515625 L 128.226562 344.09375 L 121.941406 346.539062 L 121.941406 388.605469 L 128.226562 391.023438 L 309.867188 461.597656 L 323.273438 466.828125 L 323.273438 408.050781 L 316.886719 405.65625 L 215.324219 367.558594 L 316.886719 329.484375 L 323.273438 327.066406 Z M 323.273438 268.289062 " fill-opacity="1" fill-rule="nonzero"/><path fill="#fff6b3" d="M 421.707031 411.4375 L 538.726562 367.558594 L 421.707031 323.675781 L 421.707031 275.488281 L 613.179688 349.902344 L 613.179688 385.214844 L 421.707031 459.628906 Z M 421.707031 411.4375 " fill-opacity="1" fill-rule="nonzero"/><g clip-path="url(#befed2ae6d)"><path fill="#000000" d="M 426.621094 282.6875 L 608.238281 353.265625 L 608.238281 381.851562 L 426.621094 452.429688 L 426.621094 414.855469 L 551.265625 368.136719 L 551.265625 367.007812 L 426.621094 320.261719 L 426.621094 282.6875 M 416.761719 268.289062 L 416.761719 327.066406 L 423.152344 329.484375 L 524.710938 367.558594 L 423.152344 405.65625 L 416.761719 408.050781 L 416.761719 466.828125 L 430.199219 461.597656 L 611.8125 391.023438 L 618.097656 388.605469 L 618.097656 346.539062 L 611.8125 344.09375 L 430.199219 273.515625 Z M 416.761719 268.289062 " fill-opacity="1" fill-rule="nonzero"/></g><path fill="#fff6b3" d="M 421.601562 498.253906 L 612.96875 498.253906 L 612.96875 540.441406 L 421.601562 540.441406 Z M 421.601562 498.253906 " fill-opacity="1" fill-rule="nonzero"/><g clip-path="url(#104077d383)"><path fill="#000000" d="M 608.054688 503.167969 L 608.054688 535.511719 L 426.542969 535.511719 L 426.542969 503.167969 L 608.054688 503.167969 M 617.886719 493.339844 L 416.683594 493.339844 L 416.683594 545.367188 L 617.886719 545.367188 Z M 617.886719 493.339844 " fill-opacity="1" fill-rule="nonzero"/></g><path fill="#fff6b3" d="M 126.832031 498.253906 L 318.199219 498.253906 L 318.199219 540.441406 L 126.832031 540.441406 Z M 126.832031 498.253906 " fill-opacity="1" fill-rule="nonzero"/><g clip-path="url(#79d0062ed7)"><path fill="#000000" d="M 313.257812 503.167969 L 313.257812 535.511719 L 131.75 535.511719 L 131.75 503.167969 L 313.257812 503.167969 M 323.117188 493.339844 L 121.890625 493.339844 L 121.890625 545.367188 L 323.117188 545.367188 Z M 323.117188 493.339844 " fill-opacity="1" fill-rule="nonzero"/></g></svg>