<svg xmlns="http://www.w3.org/2000/svg" xmlns:xlink="http://www.w3.org/1999/xlink" width="940" zoomAndPan="magnify" viewBox="0 0 705 591.000005" height="788" preserveAspectRatio="xMidYMid meet" version="1.0"><defs><clipPath id="4697b7b7f2"><path d="M 225 544 L 520.726562 544 L 520.726562 589.992188 L 225 589.992188 Z M 225 544 " clip-rule="nonzero"/></clipPath><clipPath id="b53ed63de7"><path d="M 585 271.667969 L 666.890625 271.667969 L 666.890625 495 L 585 495 Z M 585 271.667969 " clip-rule="nonzero"/></clipPath><clipPath id="438d0abf0b"><path d="M 71.667969 69 L 344 69 L 344 155 L 71.667969 155 Z M 71.667969 69 " clip-rule="nonzero"/></clipPath></defs><path fill="#00435b" d="M 152.722656 483.210938 C 145.488281 474.796875 138.765625 466.003906 132.546875 456.828125 C 132.320312 456.492188 132.035156 456.210938 131.695312 455.988281 C 131.359375 455.765625 130.988281 455.617188 130.589844 455.539062 C 130.191406 455.460938 129.792969 455.464844 129.394531 455.546875 C 128.996094 455.628906 128.628906 455.785156 128.292969 456.011719 C 127.957031 456.238281 127.679688 456.523438 127.453125 456.863281 C 127.230469 457.199219 127.082031 457.570312 127.003906 457.96875 C 126.925781 458.367188 126.929688 458.765625 127.011719 459.164062 C 127.09375 459.5625 127.25 459.929688 127.476562 460.265625 C 133.824219 469.632812 140.691406 478.613281 148.078125 487.203125 C 148.339844 487.511719 148.65625 487.757812 149.019531 487.941406 C 149.378906 488.121094 149.765625 488.230469 150.167969 488.261719 C 150.574219 488.289062 150.96875 488.242188 151.355469 488.117188 C 151.742188 487.988281 152.089844 487.792969 152.394531 487.527344 C 152.703125 487.265625 152.949219 486.949219 153.132812 486.585938 C 153.316406 486.226562 153.421875 485.839844 153.453125 485.4375 C 153.484375 485.03125 153.4375 484.636719 153.308594 484.25 C 153.183594 483.863281 152.988281 483.519531 152.722656 483.210938 Z M 115.527344 428.3125 C 110.402344 418.472656 105.859375 408.378906 101.90625 398.027344 C 101.761719 397.648438 101.550781 397.3125 101.269531 397.015625 C 100.992188 396.71875 100.667969 396.488281 100.296875 396.324219 C 99.925781 396.160156 99.539062 396.070312 99.132812 396.058594 C 98.726562 396.046875 98.332031 396.113281 97.953125 396.257812 C 97.574219 396.402344 97.238281 396.617188 96.941406 396.894531 C 96.644531 397.175781 96.414062 397.5 96.25 397.871094 C 96.085938 398.238281 95.996094 398.628906 95.984375 399.035156 C 95.972656 399.441406 96.039062 399.832031 96.183594 400.210938 C 100.222656 410.785156 104.859375 421.09375 110.097656 431.144531 C 110.285156 431.503906 110.535156 431.8125 110.84375 432.074219 C 111.15625 432.335938 111.507812 432.527344 111.894531 432.648438 C 112.28125 432.769531 112.675781 432.8125 113.082031 432.777344 C 113.484375 432.742188 113.867188 432.632812 114.226562 432.441406 C 114.589844 432.253906 114.898438 432.007812 115.160156 431.695312 C 115.421875 431.382812 115.613281 431.035156 115.734375 430.648438 C 115.855469 430.257812 115.898438 429.863281 115.863281 429.457031 C 115.828125 429.054688 115.714844 428.671875 115.527344 428.3125 Z M 91.875 366.371094 C 89.148438 355.640625 87.046875 344.773438 85.570312 333.769531 C 85.515625 333.367188 85.386719 332.992188 85.183594 332.640625 C 84.980469 332.289062 84.714844 331.988281 84.394531 331.742188 C 84.070312 331.496094 83.714844 331.320312 83.320312 331.21875 C 82.929688 331.113281 82.53125 331.085938 82.128906 331.140625 C 81.726562 331.195312 81.347656 331.324219 80.996094 331.527344 C 80.644531 331.734375 80.347656 331.996094 80.101562 332.320312 C 79.855469 332.640625 79.679688 333 79.574219 333.390625 C 79.472656 333.785156 79.445312 334.183594 79.5 334.585938 C 81.007812 345.820312 83.152344 356.917969 85.941406 367.882812 C 86.039062 368.273438 86.210938 368.632812 86.453125 368.960938 C 86.699219 369.285156 86.992188 369.550781 87.34375 369.757812 C 87.691406 369.964844 88.066406 370.097656 88.46875 370.15625 C 88.871094 370.214844 89.269531 370.195312 89.664062 370.09375 C 90.054688 369.996094 90.414062 369.824219 90.742188 369.582031 C 91.066406 369.335938 91.332031 369.042969 91.539062 368.691406 C 91.75 368.34375 91.882812 367.96875 91.941406 367.566406 C 91.996094 367.164062 91.976562 366.765625 91.875 366.371094 Z M 83.046875 300.65625 C 83.007812 298.769531 82.992188 296.882812 82.992188 294.996094 C 82.992188 285.769531 83.421875 276.59375 84.285156 267.460938 C 84.324219 267.058594 84.285156 266.660156 84.164062 266.273438 C 84.046875 265.886719 83.855469 265.535156 83.597656 265.222656 C 83.339844 264.910156 83.03125 264.65625 82.671875 264.46875 C 82.3125 264.277344 81.929688 264.164062 81.527344 264.125 C 81.121094 264.085938 80.726562 264.125 80.335938 264.246094 C 79.949219 264.367188 79.597656 264.554688 79.285156 264.8125 C 78.972656 265.074219 78.71875 265.382812 78.53125 265.742188 C 78.339844 266.097656 78.226562 266.480469 78.1875 266.886719 C 77.304688 276.207031 76.867188 285.578125 76.867188 294.996094 C 76.867188 296.921875 76.882812 298.847656 76.921875 300.773438 C 76.929688 301.179688 77.015625 301.566406 77.175781 301.941406 C 77.339844 302.3125 77.566406 302.636719 77.859375 302.921875 C 78.152344 303.203125 78.488281 303.417969 78.867188 303.566406 C 79.242188 303.714844 79.636719 303.785156 80.042969 303.777344 C 80.449219 303.769531 80.835938 303.683594 81.210938 303.519531 C 81.582031 303.355469 81.910156 303.128906 82.191406 302.835938 C 82.472656 302.542969 82.6875 302.207031 82.835938 301.832031 C 82.984375 301.453125 83.054688 301.0625 83.046875 300.65625 Z M 89.308594 234.636719 C 91.613281 223.789062 94.539062 213.113281 98.082031 202.609375 C 98.210938 202.226562 98.261719 201.828125 98.234375 201.425781 C 98.207031 201.019531 98.101562 200.636719 97.921875 200.269531 C 97.742188 199.90625 97.5 199.589844 97.191406 199.324219 C 96.886719 199.058594 96.542969 198.859375 96.15625 198.730469 C 95.773438 198.597656 95.378906 198.546875 94.972656 198.574219 C 94.566406 198.601562 94.183594 198.707031 93.816406 198.886719 C 93.453125 199.066406 93.140625 199.308594 92.871094 199.617188 C 92.605469 199.921875 92.40625 200.265625 92.277344 200.652344 C 88.65625 211.378906 85.671875 222.28125 83.316406 233.363281 C 83.230469 233.757812 83.226562 234.15625 83.300781 234.558594 C 83.375 234.957031 83.519531 235.328125 83.742188 235.667969 C 83.964844 236.007812 84.242188 236.292969 84.578125 236.523438 C 84.910156 236.753906 85.277344 236.910156 85.675781 236.996094 C 86.070312 237.078125 86.46875 237.085938 86.871094 237.011719 C 87.269531 236.9375 87.636719 236.789062 87.980469 236.566406 C 88.320312 236.347656 88.605469 236.066406 88.835938 235.734375 C 89.066406 235.398438 89.222656 235.03125 89.308594 234.636719 Z M 89.308594 234.636719 " fill-opacity="1" fill-rule="nonzero"/><g clip-path="url(#4697b7b7f2)"><path fill="#00435b" d="M 516.128906 545.332031 C 506.519531 550.882812 496.628906 555.855469 486.460938 560.253906 C 486.089844 560.414062 485.761719 560.640625 485.480469 560.933594 C 485.195312 561.222656 484.980469 561.558594 484.832031 561.933594 C 484.679688 562.3125 484.609375 562.703125 484.617188 563.109375 C 484.621094 563.515625 484.707031 563.90625 484.867188 564.277344 C 485.027344 564.652344 485.253906 564.980469 485.546875 565.261719 C 485.835938 565.546875 486.171875 565.761719 486.550781 565.910156 C 486.925781 566.058594 487.320312 566.132812 487.726562 566.125 C 488.132812 566.121094 488.519531 566.035156 488.894531 565.875 C 499.277344 561.382812 509.378906 556.304688 519.195312 550.636719 C 519.546875 550.433594 519.84375 550.171875 520.09375 549.847656 C 520.339844 549.527344 520.515625 549.167969 520.621094 548.777344 C 520.726562 548.386719 520.75 547.988281 520.699219 547.585938 C 520.644531 547.183594 520.515625 546.804688 520.3125 546.453125 C 520.109375 546.101562 519.847656 545.800781 519.527344 545.554688 C 519.203125 545.308594 518.847656 545.132812 518.453125 545.027344 C 518.0625 544.921875 517.664062 544.894531 517.261719 544.949219 C 516.859375 545 516.480469 545.128906 516.128906 545.332031 Z M 455.269531 571.648438 C 444.660156 574.84375 433.894531 577.414062 422.96875 579.363281 C 422.570312 579.433594 422.199219 579.578125 421.859375 579.796875 C 421.515625 580.015625 421.226562 580.292969 420.996094 580.625 C 420.765625 580.960938 420.605469 581.324219 420.515625 581.722656 C 420.429688 582.117188 420.421875 582.515625 420.492188 582.914062 C 420.566406 583.316406 420.710938 583.6875 420.929688 584.027344 C 421.148438 584.371094 421.425781 584.65625 421.757812 584.890625 C 422.089844 585.121094 422.457031 585.28125 422.851562 585.367188 C 423.25 585.457031 423.648438 585.464844 424.046875 585.394531 C 435.203125 583.402344 446.199219 580.777344 457.035156 577.515625 C 457.425781 577.398438 457.777344 577.210938 458.09375 576.953125 C 458.40625 576.695312 458.660156 576.386719 458.851562 576.03125 C 459.042969 575.671875 459.160156 575.292969 459.203125 574.886719 C 459.242188 574.484375 459.203125 574.085938 459.085938 573.699219 C 458.96875 573.308594 458.78125 572.957031 458.527344 572.644531 C 458.269531 572.328125 457.960938 572.074219 457.605469 571.882812 C 457.246094 571.691406 456.863281 571.574219 456.460938 571.535156 C 456.054688 571.492188 455.660156 571.53125 455.269531 571.648438 Z M 389.996094 583.308594 C 383.972656 583.679688 377.9375 583.867188 371.878906 583.867188 C 366.832031 583.867188 361.800781 583.738281 356.777344 583.476562 C 356.371094 583.457031 355.976562 583.515625 355.59375 583.652344 C 355.210938 583.785156 354.871094 583.992188 354.570312 584.261719 C 354.265625 584.535156 354.027344 584.855469 353.855469 585.21875 C 353.679688 585.585938 353.582031 585.972656 353.5625 586.378906 C 353.539062 586.785156 353.597656 587.179688 353.734375 587.5625 C 353.871094 587.945312 354.074219 588.285156 354.34375 588.589844 C 354.617188 588.890625 354.9375 589.128906 355.304688 589.300781 C 355.671875 589.476562 356.058594 589.574219 356.460938 589.59375 C 361.589844 589.859375 366.730469 589.992188 371.878906 589.992188 C 378.0625 589.992188 384.226562 589.800781 390.371094 589.421875 C 390.777344 589.394531 391.164062 589.292969 391.527344 589.117188 C 391.894531 588.9375 392.210938 588.695312 392.480469 588.390625 C 392.746094 588.085938 392.949219 587.742188 393.082031 587.359375 C 393.210938 586.976562 393.265625 586.582031 393.242188 586.175781 C 393.214844 585.769531 393.113281 585.382812 392.9375 585.019531 C 392.757812 584.65625 392.515625 584.335938 392.210938 584.070312 C 391.90625 583.800781 391.5625 583.597656 391.179688 583.46875 C 390.792969 583.335938 390.398438 583.28125 389.996094 583.308594 Z M 323.761719 579.878906 C 312.816406 578.042969 302.023438 575.585938 291.382812 572.503906 C 290.992188 572.390625 290.59375 572.355469 290.191406 572.402344 C 289.789062 572.445312 289.40625 572.566406 289.050781 572.761719 C 288.695312 572.960938 288.390625 573.214844 288.136719 573.535156 C 287.882812 573.851562 287.699219 574.203125 287.589844 574.59375 C 287.476562 574.984375 287.441406 575.382812 287.484375 575.785156 C 287.53125 576.1875 287.652344 576.566406 287.847656 576.925781 C 288.042969 577.28125 288.300781 577.585938 288.617188 577.839844 C 288.933594 578.089844 289.289062 578.273438 289.679688 578.386719 C 300.546875 581.535156 311.570312 584.042969 322.75 585.917969 C 323.148438 585.984375 323.546875 585.972656 323.941406 585.882812 C 324.339844 585.792969 324.703125 585.628906 325.03125 585.390625 C 325.363281 585.15625 325.636719 584.867188 325.851562 584.523438 C 326.066406 584.175781 326.207031 583.804688 326.277344 583.40625 C 326.34375 583.003906 326.332031 582.605469 326.238281 582.210938 C 326.148438 581.8125 325.984375 581.449219 325.75 581.121094 C 325.511719 580.789062 325.222656 580.515625 324.878906 580.300781 C 324.535156 580.085938 324.160156 579.945312 323.761719 579.878906 Z M 260.074219 561.4375 C 249.859375 557.144531 239.917969 552.277344 230.25 546.828125 C 229.894531 546.628906 229.515625 546.503906 229.113281 546.457031 C 228.710938 546.40625 228.3125 546.4375 227.921875 546.546875 C 227.53125 546.65625 227.175781 546.835938 226.855469 547.085938 C 226.535156 547.335938 226.277344 547.640625 226.078125 547.992188 C 225.878906 548.347656 225.753906 548.726562 225.703125 549.128906 C 225.65625 549.53125 225.6875 549.929688 225.796875 550.320312 C 225.90625 550.710938 226.085938 551.066406 226.335938 551.386719 C 226.585938 551.707031 226.886719 551.964844 227.242188 552.164062 C 237.113281 557.726562 247.265625 562.703125 257.699219 567.085938 C 258.074219 567.242188 258.464844 567.320312 258.871094 567.324219 C 259.277344 567.324219 259.667969 567.25 260.042969 567.097656 C 260.417969 566.941406 260.753906 566.722656 261.039062 566.4375 C 261.328125 566.152344 261.550781 565.820312 261.710938 565.445312 C 261.867188 565.074219 261.945312 564.683594 261.949219 564.277344 C 261.949219 563.871094 261.875 563.480469 261.722656 563.101562 C 261.566406 562.726562 261.347656 562.394531 261.0625 562.105469 C 260.777344 561.816406 260.445312 561.59375 260.074219 561.4375 Z M 260.074219 561.4375 " fill-opacity="1" fill-rule="nonzero"/></g><g clip-path="url(#b53ed63de7)"><path fill="#00435b" d="M 660.097656 275.148438 C 660.542969 281.742188 660.765625 288.359375 660.765625 294.996094 C 660.765625 299.460938 660.664062 303.914062 660.464844 308.359375 C 660.445312 308.765625 660.503906 309.160156 660.644531 309.542969 C 660.78125 309.925781 660.988281 310.265625 661.261719 310.566406 C 661.535156 310.863281 661.855469 311.101562 662.222656 311.273438 C 662.589844 311.445312 662.976562 311.542969 663.382812 311.558594 C 663.789062 311.578125 664.183594 311.519531 664.566406 311.378906 C 664.945312 311.242188 665.289062 311.035156 665.585938 310.761719 C 665.886719 310.488281 666.125 310.167969 666.296875 309.800781 C 666.46875 309.433594 666.5625 309.046875 666.582031 308.640625 C 666.789062 304.101562 666.890625 299.554688 666.890625 294.996094 C 666.890625 288.21875 666.664062 281.464844 666.207031 274.734375 C 666.179688 274.328125 666.078125 273.941406 665.894531 273.578125 C 665.714844 273.214844 665.472656 272.898438 665.167969 272.632812 C 664.859375 272.367188 664.515625 272.167969 664.128906 272.039062 C 663.746094 271.90625 663.351562 271.855469 662.945312 271.882812 C 662.539062 271.910156 662.15625 272.015625 661.792969 272.195312 C 661.425781 272.375 661.113281 272.621094 660.84375 272.925781 C 660.578125 273.230469 660.378906 273.578125 660.25 273.960938 C 660.121094 274.347656 660.070312 274.742188 660.097656 275.148438 Z M 657.058594 341.394531 C 655.289062 352.351562 652.898438 363.160156 649.882812 373.816406 C 649.773438 374.207031 649.738281 374.605469 649.789062 375.007812 C 649.835938 375.410156 649.957031 375.789062 650.15625 376.144531 C 650.355469 376.5 650.613281 376.804688 650.929688 377.054688 C 651.25 377.304688 651.605469 377.488281 651.996094 377.597656 C 652.386719 377.707031 652.78125 377.742188 653.1875 377.691406 C 653.589844 377.644531 653.96875 377.523438 654.324219 377.324219 C 654.679688 377.125 654.980469 376.867188 655.234375 376.550781 C 655.484375 376.230469 655.664062 375.875 655.777344 375.484375 C 658.855469 364.601562 661.300781 353.5625 663.109375 342.371094 C 663.171875 341.972656 663.15625 341.574219 663.0625 341.179688 C 662.96875 340.785156 662.804688 340.421875 662.566406 340.09375 C 662.328125 339.761719 662.039062 339.492188 661.691406 339.277344 C 661.347656 339.066406 660.972656 338.925781 660.570312 338.859375 C 660.171875 338.796875 659.773438 338.8125 659.378906 338.90625 C 658.984375 338.996094 658.621094 339.164062 658.289062 339.402344 C 657.960938 339.640625 657.691406 339.929688 657.476562 340.277344 C 657.265625 340.621094 657.125 340.996094 657.058594 341.394531 Z M 639.003906 405.191406 C 634.773438 415.429688 629.964844 425.402344 624.574219 435.101562 C 624.378906 435.453125 624.253906 435.835938 624.210938 436.238281 C 624.164062 436.640625 624.195312 437.039062 624.308594 437.429688 C 624.417969 437.820312 624.601562 438.171875 624.851562 438.492188 C 625.105469 438.808594 625.410156 439.066406 625.765625 439.265625 C 626.121094 439.460938 626.5 439.582031 626.902344 439.628906 C 627.304688 439.675781 627.703125 439.644531 628.09375 439.53125 C 628.484375 439.421875 628.839844 439.238281 629.15625 438.984375 C 629.472656 438.734375 629.730469 438.429688 629.929688 438.074219 C 635.433594 428.167969 640.347656 417.988281 644.664062 407.527344 C 644.820312 407.152344 644.898438 406.761719 644.898438 406.355469 C 644.898438 405.949219 644.820312 405.558594 644.664062 405.183594 C 644.507812 404.808594 644.285156 404.480469 644 404.191406 C 643.710938 403.90625 643.378906 403.683594 643.003906 403.53125 C 642.628906 403.375 642.238281 403.296875 641.832031 403.296875 C 641.425781 403.296875 641.035156 403.375 640.660156 403.53125 C 640.285156 403.6875 639.953125 403.910156 639.667969 404.195312 C 639.378906 404.484375 639.160156 404.816406 639.003906 405.191406 Z M 606.800781 463.152344 C 600.34375 472.160156 593.386719 480.769531 585.933594 488.988281 C 585.660156 489.289062 585.453125 489.632812 585.316406 490.011719 C 585.179688 490.394531 585.121094 490.789062 585.140625 491.195312 C 585.160156 491.601562 585.257812 491.988281 585.433594 492.355469 C 585.605469 492.722656 585.84375 493.042969 586.144531 493.316406 C 586.445312 493.585938 586.785156 493.792969 587.167969 493.929688 C 587.550781 494.066406 587.945312 494.125 588.351562 494.105469 C 588.757812 494.085938 589.144531 493.988281 589.511719 493.816406 C 589.878906 493.640625 590.195312 493.40625 590.46875 493.105469 C 598.082031 484.710938 605.183594 475.917969 611.777344 466.722656 C 612.015625 466.390625 612.179688 466.03125 612.273438 465.632812 C 612.363281 465.238281 612.378906 464.839844 612.3125 464.441406 C 612.246094 464.039062 612.105469 463.667969 611.890625 463.320312 C 611.675781 462.976562 611.40625 462.6875 611.074219 462.449219 C 610.746094 462.210938 610.382812 462.046875 609.988281 461.957031 C 609.589844 461.863281 609.191406 461.851562 608.792969 461.914062 C 608.390625 461.980469 608.019531 462.121094 607.671875 462.335938 C 607.328125 462.550781 607.039062 462.824219 606.800781 463.152344 Z M 606.800781 463.152344 " fill-opacity="1" fill-rule="nonzero"/></g><path fill="#00435b" d="M 219.082031 49.792969 C 228.496094 43.914062 238.207031 38.601562 248.214844 33.855469 C 248.582031 33.679688 248.902344 33.441406 249.175781 33.140625 C 249.449219 32.839844 249.652344 32.5 249.789062 32.117188 C 249.925781 31.734375 249.984375 31.339844 249.960938 30.933594 C 249.941406 30.527344 249.84375 30.140625 249.671875 29.773438 C 249.496094 29.40625 249.257812 29.089844 248.957031 28.816406 C 248.65625 28.542969 248.316406 28.339844 247.933594 28.203125 C 247.550781 28.066406 247.15625 28.007812 246.75 28.027344 C 246.34375 28.046875 245.957031 28.144531 245.589844 28.320312 C 235.367188 33.167969 225.449219 38.59375 215.835938 44.597656 C 215.492188 44.8125 215.203125 45.085938 214.964844 45.417969 C 214.730469 45.746094 214.566406 46.109375 214.476562 46.503906 C 214.382812 46.902344 214.371094 47.300781 214.4375 47.699219 C 214.503906 48.101562 214.644531 48.472656 214.859375 48.816406 C 215.078125 49.164062 215.347656 49.453125 215.679688 49.6875 C 216.011719 49.925781 216.375 50.089844 216.769531 50.179688 C 217.164062 50.269531 217.5625 50.285156 217.964844 50.214844 C 218.363281 50.148438 218.738281 50.007812 219.082031 49.792969 Z M 278.992188 21.382812 C 289.488281 17.820312 300.160156 14.875 311.003906 12.550781 C 311.402344 12.464844 311.765625 12.308594 312.101562 12.074219 C 312.4375 11.84375 312.714844 11.558594 312.933594 11.21875 C 313.152344 10.878906 313.300781 10.507812 313.375 10.109375 C 313.449219 9.707031 313.441406 9.308594 313.355469 8.914062 C 313.269531 8.515625 313.113281 8.148438 312.882812 7.816406 C 312.652344 7.480469 312.367188 7.203125 312.023438 6.984375 C 311.683594 6.761719 311.3125 6.617188 310.914062 6.542969 C 310.515625 6.46875 310.117188 6.476562 309.71875 6.5625 C 298.644531 8.9375 287.746094 11.941406 277.023438 15.582031 C 276.640625 15.710938 276.292969 15.910156 275.988281 16.179688 C 275.683594 16.445312 275.441406 16.761719 275.261719 17.125 C 275.082031 17.488281 274.980469 17.875 274.953125 18.28125 C 274.925781 18.683594 274.976562 19.082031 275.109375 19.464844 C 275.238281 19.847656 275.4375 20.195312 275.707031 20.5 C 275.972656 20.804688 276.289062 21.046875 276.652344 21.226562 C 277.015625 21.40625 277.402344 21.511719 277.808594 21.535156 C 278.210938 21.5625 278.609375 21.511719 278.992188 21.382812 Z M 343.824219 7.46875 C 353.128906 6.574219 362.480469 6.125 371.878906 6.125 L 377.042969 6.171875 C 377.449219 6.175781 377.839844 6.101562 378.214844 5.949219 C 378.59375 5.796875 378.925781 5.578125 379.214844 5.292969 C 379.503906 5.007812 379.730469 4.679688 379.886719 4.304688 C 380.046875 3.929688 380.128906 3.539062 380.132812 3.132812 C 380.136719 2.726562 380.058594 2.335938 379.910156 1.960938 C 379.757812 1.585938 379.539062 1.25 379.253906 0.960938 C 378.96875 0.671875 378.640625 0.449219 378.265625 0.289062 C 377.890625 0.128906 377.5 0.0507812 377.09375 0.046875 L 371.878906 0 C 362.285156 0 352.734375 0.457031 343.234375 1.371094 C 342.832031 1.410156 342.449219 1.527344 342.089844 1.71875 C 341.734375 1.910156 341.425781 2.160156 341.164062 2.472656 C 340.90625 2.785156 340.71875 3.136719 340.601562 3.527344 C 340.480469 3.914062 340.441406 4.3125 340.480469 4.714844 C 340.519531 5.121094 340.632812 5.5 340.824219 5.859375 C 341.015625 6.21875 341.269531 6.527344 341.582031 6.785156 C 341.894531 7.042969 342.246094 7.230469 342.632812 7.351562 C 343.023438 7.46875 343.417969 7.507812 343.824219 7.46875 Z M 410.136719 8.636719 C 421.144531 10.089844 432.015625 12.171875 442.753906 14.882812 C 443.148438 14.980469 443.542969 15 443.945312 14.941406 C 444.347656 14.882812 444.722656 14.75 445.070312 14.542969 C 445.421875 14.332031 445.714844 14.066406 445.957031 13.742188 C 446.203125 13.414062 446.371094 13.054688 446.472656 12.660156 C 446.570312 12.265625 446.589844 11.871094 446.53125 11.46875 C 446.472656 11.066406 446.339844 10.691406 446.132812 10.339844 C 445.921875 9.992188 445.65625 9.699219 445.332031 9.457031 C 445.003906 9.210938 444.644531 9.042969 444.25 8.941406 C 433.285156 6.175781 422.179688 4.050781 410.941406 2.5625 C 410.539062 2.511719 410.140625 2.535156 409.746094 2.640625 C 409.355469 2.746094 409 2.921875 408.675781 3.167969 C 408.351562 3.414062 408.089844 3.714844 407.886719 4.066406 C 407.683594 4.417969 407.554688 4.796875 407.503906 5.199219 C 407.449219 5.601562 407.476562 5.996094 407.578125 6.390625 C 407.683594 6.78125 407.859375 7.140625 408.109375 7.460938 C 408.355469 7.785156 408.652344 8.046875 409.003906 8.25 C 409.355469 8.453125 409.734375 8.582031 410.136719 8.636719 Z M 474.429688 24.855469 C 484.785156 28.789062 494.890625 33.308594 504.738281 38.417969 C 505.097656 38.605469 505.480469 38.71875 505.886719 38.753906 C 506.292969 38.789062 506.6875 38.742188 507.074219 38.621094 C 507.460938 38.5 507.808594 38.304688 508.121094 38.042969 C 508.433594 37.78125 508.679688 37.472656 508.867188 37.113281 C 509.054688 36.75 509.167969 36.367188 509.199219 35.964844 C 509.234375 35.558594 509.191406 35.164062 509.070312 34.777344 C 508.945312 34.390625 508.753906 34.039062 508.492188 33.730469 C 508.230469 33.417969 507.921875 33.167969 507.558594 32.984375 C 497.5 27.765625 487.183594 23.144531 476.601562 19.128906 C 476.222656 18.984375 475.832031 18.917969 475.425781 18.929688 C 475.019531 18.941406 474.628906 19.03125 474.261719 19.195312 C 473.890625 19.363281 473.566406 19.59375 473.285156 19.890625 C 473.007812 20.1875 472.796875 20.523438 472.652344 20.902344 C 472.507812 21.28125 472.441406 21.675781 472.453125 22.082031 C 472.464844 22.488281 472.554688 22.875 472.722656 23.246094 C 472.886719 23.617188 473.121094 23.941406 473.414062 24.21875 C 473.710938 24.5 474.046875 24.710938 474.429688 24.855469 Z M 533.289062 55.386719 C 542.167969 61.378906 550.695312 67.851562 558.871094 74.796875 C 559.179688 75.058594 559.527344 75.253906 559.914062 75.378906 C 560.300781 75.503906 560.695312 75.550781 561.101562 75.515625 C 561.507812 75.484375 561.890625 75.375 562.25 75.1875 C 562.613281 75.003906 562.925781 74.757812 563.1875 74.445312 C 563.449219 74.136719 563.644531 73.789062 563.769531 73.402344 C 563.894531 73.015625 563.941406 72.621094 563.90625 72.214844 C 563.875 71.8125 563.765625 71.429688 563.578125 71.066406 C 563.394531 70.707031 563.148438 70.394531 562.835938 70.128906 C 554.492188 63.035156 545.785156 56.429688 536.714844 50.308594 C 536.378906 50.082031 536.011719 49.925781 535.613281 49.847656 C 535.214844 49.765625 534.816406 49.761719 534.417969 49.839844 C 534.019531 49.917969 533.652344 50.070312 533.3125 50.292969 C 532.972656 50.515625 532.691406 50.796875 532.464844 51.132812 C 532.234375 51.46875 532.082031 51.835938 532 52.234375 C 531.917969 52.632812 531.917969 53.03125 531.996094 53.429688 C 532.070312 53.828125 532.222656 54.199219 532.445312 54.535156 C 532.671875 54.875 532.953125 55.160156 533.289062 55.386719 Z M 533.289062 55.386719 " fill-opacity="1" fill-rule="nonzero"/><path fill="#afefde" d="M 586.234375 294.996094 C 586.234375 413.371094 490.261719 509.335938 371.878906 509.335938 C 253.492188 509.335938 157.523438 413.371094 157.523438 294.996094 C 157.523438 176.617188 253.492188 80.65625 371.878906 80.65625 C 490.261719 80.65625 586.234375 176.617188 586.234375 294.996094 " fill-opacity="1" fill-rule="nonzero"/><path fill="#ff8376" d="M 302.300781 301.4375 L 302.300781 353.730469 L 118.449219 353.730469 L 118.449219 294.859375 L 302.300781 294.859375 L 302.300781 301.4375 " fill-opacity="1" fill-rule="nonzero"/><path stroke-linecap="round" transform="matrix(0.0245644, 0, 0, -0.0245629, 71.690743, 589.991866)" fill="none" stroke-linejoin="round" d="M 9387.984431 11747.553489 L 9387.984431 9618.61517 L 1903.507094 9618.61517 L 1903.507094 12015.360476 L 9387.984431 12015.360476 Z M 9387.984431 11747.553489 " stroke="#00435b" stroke-width="249.37399" stroke-opacity="1" stroke-miterlimit="10"/><path fill="#ffe357" d="M 302.300781 238.949219 L 302.300781 294.859375 L 118.449219 294.859375 L 118.449219 238.949219 L 302.300781 238.949219 " fill-opacity="1" fill-rule="nonzero"/><path stroke-linecap="round" transform="matrix(0.0245644, 0, 0, -0.0245629, 71.690743, 589.991866)" fill="none" stroke-linejoin="round" d="M 9387.984431 14291.560832 L 9387.984431 12015.360476 L 1903.507094 12015.360476 L 1903.507094 14291.560832 Z M 9387.984431 14291.560832 " stroke="#00435b" stroke-width="249.37399" stroke-opacity="1" stroke-miterlimit="10"/><path fill="#6ad3c4" d="M 118.449219 238.949219 L 118.449219 180.394531 L 302.300781 180.394531 L 302.300781 238.949219 L 118.449219 238.949219 " fill-opacity="1" fill-rule="nonzero"/><path stroke-linecap="round" transform="matrix(0.0245644, 0, 0, -0.0245629, 71.690743, 589.991866)" fill="none" stroke-linejoin="round" d="M 1903.507094 14291.560832 L 1903.507094 16675.424686 L 9387.984431 16675.424686 L 9387.984431 14291.560832 Z M 1903.507094 14291.560832 " stroke="#00435b" stroke-width="249.37399" stroke-opacity="1" stroke-miterlimit="10"/><path stroke-linecap="round" transform="matrix(0.0245644, 0, 0, -0.0245629, 71.690743, 589.991866)" fill="none" stroke-linejoin="round" d="M 6928.885345 15820.159856 L 6928.885345 15178.631718 " stroke="#00435b" stroke-width="249.37399" stroke-opacity="1" stroke-miterlimit="10"/><path stroke-linecap="round" transform="matrix(0.0245644, 0, 0, -0.0245629, 71.690743, 589.991866)" fill="none" stroke-linejoin="round" d="M 5645.745762 15820.159856 L 5645.745762 15178.631718 " stroke="#00435b" stroke-width="249.37399" stroke-opacity="1" stroke-miterlimit="10"/><path stroke-linecap="round" transform="matrix(0.0245644, 0, 0, -0.0245629, 71.690743, 589.991866)" fill="none" stroke-linejoin="round" d="M 4362.7652 15820.159856 L 4362.7652 15178.631718 " stroke="#00435b" stroke-width="249.37399" stroke-opacity="1" stroke-miterlimit="10"/><path stroke-linecap="round" transform="matrix(0.0245644, 0, 0, -0.0245629, 71.690743, 589.991866)" fill="none" stroke-linejoin="round" d="M 6928.885345 15820.159856 L 6928.885345 15178.631718 " stroke="#00435b" stroke-width="249.37399" stroke-opacity="1" stroke-miterlimit="10"/><path stroke-linecap="round" transform="matrix(0.0245644, 0, 0, -0.0245629, 71.690743, 589.991866)" fill="none" stroke-linejoin="round" d="M 5645.745762 15820.159856 L 5645.745762 15178.631718 " stroke="#00435b" stroke-width="249.37399" stroke-opacity="1" stroke-miterlimit="10"/><path stroke-linecap="round" transform="matrix(0.0245644, 0, 0, -0.0245629, 71.690743, 589.991866)" fill="none" stroke-linejoin="round" d="M 4362.7652 15820.159856 L 4362.7652 15178.631718 " stroke="#00435b" stroke-width="249.37399" stroke-opacity="1" stroke-miterlimit="10"/><path stroke-linecap="round" transform="matrix(0.0245644, 0, 0, -0.0245629, 71.690743, 589.991866)" fill="none" stroke-linejoin="round" d="M 6928.885345 13467.783997 L 6928.885345 12826.255859 " stroke="#00435b" stroke-width="249.37399" stroke-opacity="1" stroke-miterlimit="10"/><path stroke-linecap="round" transform="matrix(0.0245644, 0, 0, -0.0245629, 71.690743, 589.991866)" fill="none" stroke-linejoin="round" d="M 5645.745762 13467.783997 L 5645.745762 12826.255859 " stroke="#00435b" stroke-width="249.37399" stroke-opacity="1" stroke-miterlimit="10"/><path stroke-linecap="round" transform="matrix(0.0245644, 0, 0, -0.0245629, 71.690743, 589.991866)" fill="none" stroke-linejoin="round" d="M 4362.7652 13467.783997 L 4362.7652 12826.255859 " stroke="#00435b" stroke-width="249.37399" stroke-opacity="1" stroke-miterlimit="10"/><path stroke-linecap="round" transform="matrix(0.0245644, 0, 0, -0.0245629, 71.690743, 589.991866)" fill="none" stroke-linejoin="round" d="M 5645.745762 11115.567168 L 5645.745762 10474.03903 " stroke="#00435b" stroke-width="249.37399" stroke-opacity="1" stroke-miterlimit="10"/><path stroke-linecap="round" transform="matrix(0.0245644, 0, 0, -0.0245629, 71.690743, 589.991866)" fill="none" stroke-linejoin="round" d="M 6904.555149 11115.567168 L 6904.555149 10474.03903 " stroke="#00435b" stroke-width="249.37399" stroke-opacity="1" stroke-miterlimit="10"/><path stroke-linecap="round" transform="matrix(0.0245644, 0, 0, -0.0245629, 71.690743, 589.991866)" fill="none" stroke-linejoin="round" d="M 4362.7652 11115.567168 L 4362.7652 10474.03903 " stroke="#00435b" stroke-width="249.37399" stroke-opacity="1" stroke-miterlimit="10"/><g clip-path="url(#438d0abf0b)"><path stroke-linecap="round" transform="matrix(0.0245644, 0, 0, -0.0245629, 71.690743, 589.991866)" fill="none" stroke-linejoin="round" d="M 124.699388 21069.431243 L 1480.511519 21069.431243 L 4165.738314 18159.018142 L 6285.486814 19407.882908 L 8244.942254 17887.871519 L 10960.542039 17861.154433 " stroke="#00435b" stroke-width="249.37399" stroke-opacity="1" stroke-miterlimit="10"/></g><path stroke-linecap="round" transform="matrix(0.0245644, 0, 0, -0.0245629, 71.690743, 589.991866)" fill="none" stroke-linejoin="round" d="M 201.029416 18468.332031 L 1495.936546 18468.332031 L 4517.174486 21172.641893 L 8027.242651 21172.641893 L 9883.493532 19407.882908 L 11166.792136 20488.970732 " stroke="#00435b" stroke-width="249.37399" stroke-opacity="1" stroke-miterlimit="10"/><path fill="#ffe357" d="M 122.320312 72.464844 C 122.320312 80.339844 115.9375 86.722656 108.058594 86.722656 C 100.183594 86.722656 93.800781 80.339844 93.800781 72.464844 C 93.800781 64.589844 100.183594 58.203125 108.058594 58.203125 C 115.9375 58.203125 122.320312 64.589844 122.320312 72.464844 " fill-opacity="1" fill-rule="nonzero"/><path stroke-linecap="round" transform="matrix(0.0245644, 0, 0, -0.0245629, 71.690743, 589.991866)" fill="none" stroke-linejoin="round" d="M 2061.096798 21069.431243 C 2061.096798 20748.826205 1801.25666 20488.970732 1480.511519 20488.970732 C 1159.925399 20488.970732 900.085261 20748.826205 900.085261 21069.431243 C 900.085261 21390.036282 1159.925399 21650.050785 1480.511519 21650.050785 C 1801.25666 21650.050785 2061.096798 21390.036282 2061.096798 21069.431243 Z M 2061.096798 21069.431243 " stroke="#00435b" stroke-width="249.37399" stroke-opacity="1" stroke-miterlimit="10"/><path fill="#ffe357" d="M 188.28125 143.953125 C 188.28125 151.832031 181.894531 158.214844 174.019531 158.214844 C 166.144531 158.214844 159.757812 151.832031 159.757812 143.953125 C 159.757812 136.078125 166.144531 129.695312 174.019531 129.695312 C 181.894531 129.695312 188.28125 136.078125 188.28125 143.953125 " fill-opacity="1" fill-rule="nonzero"/><path stroke-linecap="round" transform="matrix(0.0245644, 0, 0, -0.0245629, 71.690743, 589.991866)" fill="none" stroke-linejoin="round" d="M 4746.323593 18159.018142 C 4746.323593 17838.254073 4486.324433 17578.3986 4165.738314 17578.3986 C 3845.152194 17578.3986 3585.153034 17838.254073 3585.153034 18159.018142 C 3585.153034 18479.62318 3845.152194 18739.478653 4165.738314 18739.478653 C 4486.324433 18739.478653 4746.323593 18479.62318 4746.323593 18159.018142 Z M 4746.323593 18159.018142 " stroke="#00435b" stroke-width="249.37399" stroke-opacity="1" stroke-miterlimit="10"/><path fill="#ffe357" d="M 122.699219 136.355469 C 122.699219 144.230469 116.3125 150.613281 108.4375 150.613281 C 100.558594 150.613281 94.175781 144.230469 94.175781 136.355469 C 94.175781 128.480469 100.558594 122.09375 108.4375 122.09375 C 116.3125 122.09375 122.699219 128.480469 122.699219 136.355469 " fill-opacity="1" fill-rule="nonzero"/><path stroke-linecap="round" transform="matrix(0.0245644, 0, 0, -0.0245629, 71.690743, 589.991866)" fill="none" stroke-linejoin="round" d="M 2076.521825 18468.332031 C 2076.521825 18147.726992 1816.522665 17887.871519 1495.936546 17887.871519 C 1175.191405 17887.871519 915.351266 18147.726992 915.351266 18468.332031 C 915.351266 18788.937069 1175.191405 19048.951572 1495.936546 19048.951572 C 1816.522665 19048.951572 2076.521825 18788.937069 2076.521825 18468.332031 Z M 2076.521825 18468.332031 " stroke="#00435b" stroke-width="249.37399" stroke-opacity="1" stroke-miterlimit="10"/><path fill="#ffe357" d="M 196.910156 69.929688 C 196.910156 77.808594 190.527344 84.191406 182.652344 84.191406 C 174.773438 84.191406 168.390625 77.808594 168.390625 69.929688 C 168.390625 62.054688 174.773438 55.671875 182.652344 55.671875 C 190.527344 55.671875 196.910156 62.054688 196.910156 69.929688 " fill-opacity="1" fill-rule="nonzero"/><path stroke-linecap="round" transform="matrix(0.0245644, 0, 0, -0.0245629, 71.690743, 589.991866)" fill="none" stroke-linejoin="round" d="M 5097.600745 21172.641893 C 5097.600745 20851.877824 4837.760606 20592.022351 4517.174486 20592.022351 C 4196.429346 20592.022351 3936.589207 20851.877824 3936.589207 21172.641893 C 3936.589207 21493.246932 4196.429346 21753.102405 4517.174486 21753.102405 C 4837.760606 21753.102405 5097.600745 21493.246932 5097.600745 21172.641893 Z M 5097.600745 21172.641893 " stroke="#00435b" stroke-width="249.37399" stroke-opacity="1" stroke-miterlimit="10"/><path fill="#ffe357" d="M 283.136719 69.929688 C 283.136719 77.808594 276.75 84.191406 268.875 84.191406 C 260.996094 84.191406 254.613281 77.808594 254.613281 69.929688 C 254.613281 62.054688 260.996094 55.671875 268.875 55.671875 C 276.75 55.671875 283.136719 62.054688 283.136719 69.929688 " fill-opacity="1" fill-rule="nonzero"/><path stroke-linecap="round" transform="matrix(0.0245644, 0, 0, -0.0245629, 71.690743, 589.991866)" fill="none" stroke-linejoin="round" d="M 8607.827931 21172.641893 C 8607.827931 20851.877824 8347.828771 20592.022351 8027.242651 20592.022351 C 7706.497511 20592.022351 7446.657372 20851.877824 7446.657372 21172.641893 C 7446.657372 21493.246932 7706.497511 21753.102405 8027.242651 21753.102405 C 8347.828771 21753.102405 8607.827931 21493.246932 8607.827931 21172.641893 Z M 8607.827931 21172.641893 " stroke="#00435b" stroke-width="249.37399" stroke-opacity="1" stroke-miterlimit="10"/><path fill="#ffe357" d="M 240.351562 113.277344 C 240.351562 121.152344 233.964844 127.535156 226.089844 127.535156 C 218.214844 127.535156 211.828125 121.152344 211.828125 113.277344 C 211.828125 105.398438 218.214844 99.015625 226.089844 99.015625 C 233.964844 99.015625 240.351562 105.398438 240.351562 113.277344 " fill-opacity="1" fill-rule="nonzero"/><path stroke-linecap="round" transform="matrix(0.0245644, 0, 0, -0.0245629, 71.690743, 589.991866)" fill="none" stroke-linejoin="round" d="M 6866.072093 19407.882908 C 6866.072093 19087.277869 6606.072933 18827.422396 6285.486814 18827.422396 C 5964.900694 18827.422396 5704.901534 19087.277869 5704.901534 19407.882908 C 5704.901534 19728.646977 5964.900694 19988.50245 6285.486814 19988.50245 C 6606.072933 19988.50245 6866.072093 19728.646977 6866.072093 19407.882908 Z M 6866.072093 19407.882908 " stroke="#00435b" stroke-width="249.37399" stroke-opacity="1" stroke-miterlimit="10"/><path fill="#ffe357" d="M 328.886719 111.871094 C 328.886719 119.746094 322.5 126.128906 314.625 126.128906 C 306.75 126.128906 300.363281 119.746094 300.363281 111.871094 C 300.363281 103.992188 306.75 97.609375 314.625 97.609375 C 322.5 97.609375 328.886719 103.992188 328.886719 111.871094 " fill-opacity="1" fill-rule="nonzero"/><path stroke-linecap="round" transform="matrix(0.0245644, 0, 0, -0.0245629, 71.690743, 589.991866)" fill="none" stroke-linejoin="round" d="M 10470.280626 19465.133808 C 10470.280626 19144.528769 10210.281467 18884.673296 9889.695347 18884.673296 C 9569.109227 18884.673296 9309.110068 19144.528769 9309.110068 19465.133808 C 9309.110068 19785.897877 9569.109227 20045.753349 9889.695347 20045.753349 C 10210.281467 20045.753349 10470.280626 19785.897877 10470.280626 19465.133808 Z M 10470.280626 19465.133808 " stroke="#00435b" stroke-width="249.37399" stroke-opacity="1" stroke-miterlimit="10"/><path fill="#ffe357" d="M 288.484375 150.613281 C 288.484375 158.488281 282.097656 164.875 274.222656 164.875 C 266.34375 164.875 259.960938 158.488281 259.960938 150.613281 C 259.960938 142.742188 266.34375 136.355469 274.222656 136.355469 C 282.097656 136.355469 288.484375 142.742188 288.484375 150.613281 " fill-opacity="1" fill-rule="nonzero"/><path stroke-linecap="round" transform="matrix(0.0245644, 0, 0, -0.0245629, 71.690743, 589.991866)" fill="none" stroke-linejoin="round" d="M 8825.527533 17887.871519 C 8825.527533 17567.266481 8565.528373 17307.251977 8244.942254 17307.251977 C 7924.197113 17307.251977 7664.356974 17567.266481 7664.356974 17887.871519 C 7664.356974 18208.317528 7924.197113 18468.332031 8244.942254 18468.332031 C 8565.528373 18468.332031 8825.527533 18208.317528 8825.527533 17887.871519 Z M 8825.527533 17887.871519 " stroke="#00435b" stroke-width="249.37399" stroke-opacity="1" stroke-miterlimit="10"/><path fill="#6ad3c4" d="M 406.359375 251.0625 L 422.503906 251.0625 C 424.339844 251.0625 425.921875 252.277344 426.480469 254.027344 C 427.949219 258.660156 429.808594 263.121094 432.011719 267.375 C 432.855469 269.007812 432.59375 270.984375 431.300781 272.28125 L 419.878906 283.703125 C 416.824219 286.753906 416.824219 291.707031 419.878906 294.761719 L 441.1875 316.070312 C 444.242188 319.121094 449.195312 319.121094 452.246094 316.070312 L 463.664062 304.648438 C 464.964844 303.347656 466.945312 303.089844 468.574219 303.933594 C 472.828125 306.140625 477.289062 307.996094 481.921875 309.46875 C 483.671875 310.023438 484.886719 311.605469 484.886719 313.441406 L 484.886719 329.585938 C 484.886719 333.90625 488.390625 337.40625 492.707031 337.40625 L 522.839844 337.40625 C 527.160156 337.40625 530.660156 333.90625 530.660156 329.585938 L 530.660156 313.441406 C 530.660156 311.605469 531.878906 310.023438 533.625 309.46875 C 538.261719 307.996094 542.722656 306.140625 546.976562 303.933594 C 548.605469 303.089844 550.585938 303.347656 551.882812 304.648438 L 563.300781 316.070312 C 566.355469 319.121094 571.308594 319.121094 574.363281 316.070312 L 595.671875 294.761719 C 598.722656 291.707031 598.722656 286.753906 595.671875 283.703125 L 584.25 272.28125 C 582.953125 270.984375 582.691406 269.007812 583.535156 267.375 C 585.742188 263.121094 587.597656 258.660156 589.070312 254.027344 C 589.625 252.277344 591.207031 251.0625 593.042969 251.0625 L 609.1875 251.0625 C 613.511719 251.0625 617.011719 247.5625 617.011719 243.242188 L 617.011719 213.109375 C 617.011719 208.792969 613.511719 205.289062 609.191406 205.289062 L 593.042969 205.289062 C 591.207031 205.289062 589.625 204.074219 589.070312 202.328125 C 587.597656 197.691406 585.742188 193.230469 583.535156 188.980469 C 582.691406 187.347656 582.953125 185.371094 584.25 184.070312 L 595.671875 172.652344 C 598.722656 169.597656 598.722656 164.648438 595.671875 161.59375 L 574.363281 140.285156 C 571.308594 137.234375 566.355469 137.234375 563.300781 140.285156 L 551.882812 151.707031 C 550.585938 153.003906 548.605469 153.265625 546.976562 152.417969 C 542.722656 150.214844 538.261719 148.355469 533.625 146.886719 C 531.878906 146.332031 530.660156 144.746094 530.660156 142.914062 L 530.660156 126.765625 C 530.660156 122.449219 527.160156 118.945312 522.84375 118.945312 L 492.707031 118.945312 C 488.390625 118.945312 484.886719 122.449219 484.886719 126.765625 L 484.886719 142.914062 C 484.886719 144.746094 483.671875 146.332031 481.921875 146.886719 C 477.289062 148.355469 472.828125 150.214844 468.574219 152.417969 C 466.945312 153.261719 464.964844 153.003906 463.664062 151.707031 L 452.246094 140.285156 C 449.195312 137.234375 444.242188 137.234375 441.1875 140.285156 L 419.878906 161.59375 C 416.824219 164.648438 416.824219 169.597656 419.878906 172.652344 L 431.300781 184.070312 C 432.59375 185.371094 432.855469 187.347656 432.011719 188.980469 C 429.808594 193.230469 427.949219 197.691406 426.480469 202.328125 C 425.921875 204.074219 424.339844 205.289062 422.503906 205.289062 L 406.359375 205.289062 C 402.039062 205.289062 398.539062 208.792969 398.539062 213.109375 L 398.539062 243.242188 C 398.539062 247.5625 402.039062 251.0625 406.359375 251.0625 " fill-opacity="1" fill-rule="nonzero"/><path stroke-linecap="round" transform="matrix(0.0245644, 0, 0, -0.0245629, 71.690743, 589.991866)" fill="none" stroke-linejoin="round" d="M 13624.141992 13798.407943 L 14281.375341 13798.407943 C 14356.115161 13798.407943 14420.518622 13748.949527 14443.25861 13677.703963 C 14503.050466 13489.094054 14578.744411 13307.481478 14668.432194 13134.297506 C 14702.780707 13067.82285 14692.126307 12987.35353 14639.490392 12934.555478 L 14174.513301 12469.550948 C 14050.158963 12345.348301 14050.158963 12143.69791 14174.513301 12019.336233 L 15041.972271 11151.826071 C 15166.326609 11027.623425 15367.965101 11027.623425 15492.160419 11151.826071 L 15956.978488 11616.830602 C 16009.932445 11669.787684 16090.556038 11680.283682 16156.86775 11645.933142 C 16330.041502 11556.081036 16511.643362 11480.541654 16700.242141 11420.58724 C 16771.4835 11398.00494 16820.938998 11333.597678 16820.938998 11258.853448 L 16820.938998 10601.581313 C 16820.938998 10425.693826 16963.580739 10283.202698 17139.298825 10283.202698 L 18365.985992 10283.202698 C 18541.863099 10283.202698 18684.345819 10425.693826 18684.345819 10601.581313 L 18684.345819 11258.853448 C 18684.345819 11333.597678 18733.960338 11398.00494 18805.042677 11420.58724 C 18993.800476 11480.541654 19175.402336 11556.081036 19348.576088 11645.933142 C 19414.8878 11680.283682 19495.511393 11669.787684 19548.306329 11616.830602 L 20013.124399 11151.826071 C 20137.478737 11027.623425 20339.117229 11027.623425 20463.471567 11151.826071 L 21330.930537 12019.336233 C 21455.125854 12143.69791 21455.125854 12345.348301 21330.930537 12469.550948 L 20865.953446 12934.555478 C 20813.15851 12987.35353 20802.50411 13067.82285 20836.852623 13134.297506 C 20926.699427 13307.481478 21002.234351 13489.094054 21062.185228 13677.703963 C 21084.766195 13748.949527 21149.169656 13798.407943 21223.909476 13798.407943 L 21881.142825 13798.407943 C 22057.178954 13798.407943 22199.661673 13940.899071 22199.661673 14116.786558 L 22199.661673 15343.546116 C 22199.661673 15519.274572 22057.178954 15661.92473 21881.301846 15661.92473 L 21223.909476 15661.92473 C 21149.169656 15661.92473 21084.766195 15711.383147 21062.185228 15782.46968 C 21002.234351 15971.238619 20926.699427 16152.851196 20836.852623 16325.876137 C 20802.50411 16392.350793 20813.15851 16472.820113 20865.953446 16525.777196 L 21330.930537 16990.622696 C 21455.125854 17114.984372 21455.125854 17316.475734 21330.930537 17440.83741 L 20463.471567 18308.347572 C 20339.117229 18432.550218 20137.478737 18432.550218 20013.124399 18308.347572 L 19548.306329 17843.343042 C 19495.511393 17790.54499 19414.8878 17779.889961 19348.576088 17814.399531 C 19175.402336 17904.092607 18993.800476 17979.791019 18805.042677 18039.586404 C 18733.960338 18062.168703 18684.345819 18126.734995 18684.345819 18201.320195 L 18684.345819 18858.751361 C 18684.345819 19034.479817 18541.863099 19177.129976 18366.145013 19177.129976 L 17139.298825 19177.129976 C 16963.580739 19177.129976 16820.938998 19034.479817 16820.938998 18858.751361 L 16820.938998 18201.320195 C 16820.938998 18126.734995 16771.4835 18062.168703 16700.242141 18039.586404 C 16511.643362 17979.791019 16330.041502 17904.092607 16156.86775 17814.399531 C 16090.556038 17780.048991 16009.932445 17790.54499 15956.978488 17843.343042 L 15492.160419 18308.347572 C 15367.965101 18432.550218 15166.326609 18432.550218 15041.972271 18308.347572 L 14174.513301 17440.83741 C 14050.158963 17316.475734 14050.158963 17114.984372 14174.513301 16990.622696 L 14639.490392 16525.777196 C 14692.126307 16472.820113 14702.780707 16392.350793 14668.432194 16325.876137 C 14578.744411 16152.851196 14503.050466 15971.238619 14443.25861 15782.46968 C 14420.518622 15711.383147 14356.115161 15661.92473 14281.375341 15661.92473 L 13624.141992 15661.92473 C 13448.264884 15661.92473 13305.782164 15519.274572 13305.782164 15343.546116 L 13305.782164 14116.786558 C 13305.782164 13940.899071 13448.264884 13798.407943 13624.141992 13798.407943 Z M 13624.141992 13798.407943 " stroke="#00435b" stroke-width="249.37399" stroke-opacity="1" stroke-miterlimit="10"/><path fill="#ffffff" d="M 447.550781 228.175781 C 447.550781 261.4375 474.511719 288.398438 507.773438 288.398438 C 541.035156 288.398438 568 261.4375 568 228.175781 C 568 194.917969 541.035156 167.957031 507.773438 167.957031 C 474.511719 167.957031 447.550781 194.917969 447.550781 228.175781 " fill-opacity="1" fill-rule="nonzero"/><path stroke-linecap="round" transform="matrix(0.0245644, 0, 0, -0.0245629, 71.690743, 589.991866)" fill="none" stroke-linejoin="round" d="M 15301.017305 14730.166337 C 15301.017305 13376.023527 16398.579507 12278.396554 17752.642409 12278.396554 C 19106.70531 12278.396554 20204.426533 13376.023527 20204.426533 14730.166337 C 20204.426533 16084.150116 19106.70531 17181.777089 17752.642409 17181.777089 C 16398.579507 17181.777089 15301.017305 16084.150116 15301.017305 14730.166337 Z M 15301.017305 14730.166337 " stroke="#00435b" stroke-width="249.37399" stroke-opacity="1" stroke-miterlimit="10"/><path stroke-linecap="round" transform="matrix(0.0245644, 0, 0, -0.0245629, 71.690743, 589.991866)" fill="none" stroke-linejoin="round" d="M 14726.792862 8280.216357 L 14545.031981 9746.952603 C 14536.444853 9817.880107 14571.270429 9886.581187 14636.468995 9933.177058 L 15930.899062 10646.745911 " stroke="#00435b" stroke-width="249.37399" stroke-opacity="1" stroke-miterlimit="10"/><path stroke-linecap="round" transform="matrix(0.0245644, 0, 0, -0.0245629, 71.690743, 589.991866)" fill="none" stroke-linejoin="round" d="M 22509.593393 17976.133323 C 24034.603755 15766.566653 23850.616582 12717.47915 21919.148819 10705.110023 C 19961.76065 8665.705749 16867.055057 8375.634524 14587.49056 9875.290037 " stroke="#00435b" stroke-width="249.37399" stroke-opacity="1" stroke-miterlimit="10"/><path stroke-linecap="round" transform="matrix(0.0245644, 0, 0, -0.0245629, 71.690743, 589.991866)" fill="none" stroke-linejoin="round" d="M 20650.003074 21195.860314 L 20833.990247 19709.086253 C 20842.895417 19637.363598 20807.433758 19567.708336 20744.143442 19532.880706 L 19432.380098 18809.451975 " stroke="#00435b" stroke-width="249.37399" stroke-opacity="1" stroke-miterlimit="10"/><path stroke-linecap="round" transform="matrix(0.0245644, 0, 0, -0.0245629, 71.690743, 589.991866)" fill="none" stroke-linejoin="round" d="M 12983.287794 11452.075235 C 11476.405815 13659.574511 11666.276761 16693.554138 13590.429562 18698.448842 C 15515.059427 20703.820636 18539.159744 21017.746403 20806.797674 19602.217907 " stroke="#00435b" stroke-width="249.37399" stroke-opacity="1" stroke-miterlimit="10"/><path fill="#ffe357" d="M 507.773438 234.695312 C 502.375 234.695312 497.996094 230.320312 497.996094 224.917969 L 497.996094 197.121094 C 497.996094 191.722656 502.375 187.34375 507.773438 187.34375 C 513.175781 187.34375 517.554688 191.722656 517.554688 197.121094 L 517.554688 224.917969 C 517.554688 230.320312 513.175781 234.695312 507.773438 234.695312 " fill-opacity="1" fill-rule="nonzero"/><path stroke-linecap="round" transform="matrix(0.0245644, 0, 0, -0.0245629, 71.690743, 589.991866)" fill="none" stroke-linejoin="round" d="M 17752.642409 14464.744804 C 17532.875535 14464.744804 17354.613114 14642.858715 17354.613114 14862.797588 L 17354.613114 15994.45704 C 17354.613114 16214.236883 17532.875535 16392.509823 17752.642409 16392.509823 C 17972.568303 16392.509823 18150.830724 16214.236883 18150.830724 15994.45704 L 18150.830724 14862.797588 C 18150.830724 14642.858715 17972.568303 14464.744804 17752.642409 14464.744804 Z M 17752.642409 14464.744804 " stroke="#00435b" stroke-width="249.37399" stroke-opacity="1" stroke-miterlimit="10"/><path fill="#ffe357" d="M 507.773438 247.726562 C 502.375 247.726562 497.996094 252.105469 497.996094 257.503906 C 497.996094 262.902344 502.375 267.285156 507.773438 267.285156 C 513.175781 267.285156 517.554688 262.902344 517.554688 257.503906 C 517.554688 252.105469 513.175781 247.726562 507.773438 247.726562 " fill-opacity="1" fill-rule="nonzero"/><path stroke-linecap="round" transform="matrix(0.0245644, 0, 0, -0.0245629, 71.690743, 589.991866)" fill="none" stroke-linejoin="round" d="M 17752.642409 13934.2198 C 17532.875535 13934.2198 17354.613114 13755.946859 17354.613114 13536.167016 C 17354.613114 13316.387173 17532.875535 13137.955202 17752.642409 13137.955202 C 17972.568303 13137.955202 18150.830724 13316.387173 18150.830724 13536.167016 C 18150.830724 13755.946859 17972.568303 13934.2198 17752.642409 13934.2198 Z M 17752.642409 13934.2198 " stroke="#00435b" stroke-width="249.37399" stroke-opacity="1" stroke-miterlimit="10"/><path fill="#ff8376" d="M 565.628906 520.347656 L 469.691406 520.347656 L 469.691406 424.417969 L 565.628906 424.417969 L 565.628906 520.347656 " fill-opacity="1" fill-rule="nonzero"/><path stroke-linecap="round" transform="matrix(0.0245644, 0, 0, -0.0245629, 71.690743, 589.991866)" fill="none" stroke-linejoin="round" d="M 20107.900851 2835.337729 L 16202.347725 2835.337729 L 16202.347725 6740.803275 L 20107.900851 6740.803275 Z M 20107.900851 2835.337729 " stroke="#00435b" stroke-width="249.37399" stroke-opacity="1" stroke-miterlimit="10"/><path fill="#ffe357" d="M 445.472656 472.382812 L 377.636719 540.21875 L 309.800781 472.382812 L 377.636719 404.550781 L 445.472656 472.382812 " fill-opacity="1" fill-rule="nonzero"/><path stroke-linecap="round" transform="matrix(0.0245644, 0, 0, -0.0245629, 71.690743, 589.991866)" fill="none" stroke-linejoin="round" d="M 15216.418191 4788.070502 L 12454.861368 2026.35071 L 9693.304545 4788.070502 L 12454.861368 7549.631264 Z M 15216.418191 4788.070502 " stroke="#00435b" stroke-width="249.37399" stroke-opacity="1" stroke-miterlimit="10"/><path fill="#6ad3c4" d="M 287.148438 472.382812 C 287.148438 442.277344 262.742188 417.871094 232.632812 417.871094 C 202.527344 417.871094 178.121094 442.277344 178.121094 472.382812 C 178.121094 502.488281 202.527344 526.894531 232.632812 526.894531 C 262.742188 526.894531 287.148438 502.488281 287.148438 472.382812 " fill-opacity="1" fill-rule="nonzero"/><path stroke-linecap="round" transform="matrix(0.0245644, 0, 0, -0.0245629, 71.690743, 589.991866)" fill="none" stroke-linejoin="round" d="M 8771.142388 4788.070502 C 8771.142388 6013.716848 7777.57985 7007.338019 6551.846809 7007.338019 C 5326.272789 7007.338019 4332.710251 6013.716848 4332.710251 4788.070502 C 4332.710251 3562.424156 5326.272789 2568.802985 6551.846809 2568.802985 C 7777.57985 2568.802985 8771.142388 3562.424156 8771.142388 4788.070502 Z M 8771.142388 4788.070502 " stroke="#00435b" stroke-width="249.37399" stroke-opacity="1" stroke-miterlimit="10"/></svg>